<?xml version="1.0" encoding="utf-8"?><svg viewBox="0 0 502.66 502.66" xmlns="http://www.w3.org/2000/svg" xmlns:xlink="http://www.w3.org/1999/xlink"><style>:root>svg{display:none}:root>svg:target{display:block}</style><svg viewBox="0 0 22 18" id="burger" xmlns="http://www.w3.org/2000/svg"><path fill-rule="evenodd" clip-rule="evenodd" d="M.5 1.5A1.5 1.5 0 0 1 2 0h18a1.5 1.5 0 0 1 0 3H2A1.5 1.5 0 0 1 .5 1.5ZM.5 9A1.5 1.5 0 0 1 2 7.5h18a1.5 1.5 0 0 1 0 3H2A1.5 1.5 0 0 1 .5 9Zm9 7.5A1.5 1.5 0 0 1 11 15h9a1.5 1.5 0 1 1 0 3h-9a1.5 1.5 0 0 1-1.5-1.5Z"/></svg><svg viewBox="0 0 6 10" id="footer-horizontal-arrow" xmlns="http://www.w3.org/2000/svg"><path d="M5.715 4.61 1.265.16A.543.543 0 0 0 .878 0a.543.543 0 0 0-.386.16L.164.487a.548.548 0 0 0 0 .774L3.9 4.998.16 8.739a.543.543 0 0 0-.16.387c0 .146.057.284.16.387l.327.327c.103.103.24.16.387.16a.543.543 0 0 0 .387-.16l4.454-4.454a.544.544 0 0 0 .16-.388.544.544 0 0 0-.16-.388Z"/></svg><svg viewBox="0 0 16 9" id="hero-form-arrow" xmlns="http://www.w3.org/2000/svg"><path d="M14.248.657 8 6.747 1.752.657a.598.598 0 0 0-.96.186.569.569 0 0 0 .125.627l6.647 6.48a.625.625 0 0 0 .872 0l6.646-6.479a.568.568 0 0 0 0-.815.598.598 0 0 0-.835 0v.001Z"/></svg><svg viewBox="0 0 18 18" id="hero-form-date" xmlns="http://www.w3.org/2000/svg"><g clip-path="url(#da)"><path d="M16.313 18H1.688A1.685 1.685 0 0 1 0 16.312v-13.5c0-.933.754-1.687 1.688-1.687h14.624c.934 0 1.688.754 1.688 1.688v13.5c0 .933-.754 1.687-1.688 1.687ZM1.688 2.25a.557.557 0 0 0-.563.563v13.5c0 .315.248.562.563.562h14.624a.557.557 0 0 0 .563-.563v-13.5a.557.557 0 0 0-.563-.562H1.688Z"/><path d="M5.063 4.5a.557.557 0 0 1-.563-.563V.563C4.5.247 4.747 0 5.063 0c.315 0 .562.247.562.563v3.375a.557.557 0 0 1-.563.562Zm7.875 0a.557.557 0 0 1-.563-.563V.563c0-.315.248-.563.563-.563.314 0 .562.247.562.563v3.375a.557.557 0 0 1-.563.562Zm4.5 2.25H.563A.557.557 0 0 1 0 6.187c0-.315.247-.562.563-.562h16.875c.315 0 .562.247.562.563a.557.557 0 0 1-.563.562Z"/></g><defs><clipPath id="da"><path d="M0 0h18v18H0z"/></clipPath></defs></svg><svg viewBox="0 0 502.664 502.664" xml:space="preserve" id="icon" xmlns="http://www.w3.org/2000/svg"><path d="M153.821 358.226 0 274.337v-46.463l153.821-83.414v54.574L46.636 250.523l107.185 53.431v54.272zm26.273 29.358L282.103 115.08h32.227L212.084 387.584h-31.99zm168.749-29.358v-54.272l107.164-52.999-107.164-52.59v-53.927l153.821 83.522v46.183l-153.821 84.083z"/></svg><svg viewBox="0 0 137 72" id="logo" xmlns="http://www.w3.org/2000/svg"><path d="M4.96 61.508h3.142c.492 0 .742-.04.968-.133.532-.219.938-.688.938-1.344 0-.648-.39-1.125-.938-1.351-.226-.094-.468-.14-.976-.14H4.96v2.968Zm0 6.492H3.095V56.797h5.234c.867 0 1.438.148 1.922.43.969.523 1.602 1.53 1.602 2.796 0 1.235-.633 2.258-1.61 2.79-.484.273-1.047.43-1.914.43H4.961V68Zm13.91-11.203h2.086l3.047 5.742 2.953-5.742h2.086l-4.305 8.101c-.531 1-.875 1.594-1.375 2.118-.578.593-1.281 1.007-2.219 1.007a3.28 3.28 0 0 1-1.875-.601l.953-1.586c.282.203.61.312.946.312.656 0 1.054-.39 1.562-1.304.008-.031.258-.477.258-.477l-4.117-7.57Zm17.76 0h1.007l4.851 5.836 4.844-5.836h1.016V68h-1.875v-7.648l-3.985 4.867-3.992-4.867V68h-1.867V56.797Zm19.696-.008h9.469v1.75H61.99V68h-1.875v-9.46h-3.789v-1.75ZM81.561 68v-7.82L74.78 68h-1.016V56.797h1.875v7.812c2.258-2.601 4.516-5.21 6.781-7.812h1.016V68H81.56Zm19.212-3.328c0 1.312-.656 2.351-1.656 2.898-.492.274-1.078.43-1.953.43h-5.133V56.797h7.727v1.742h-5.86v2.813h3.266c.875 0 1.461.156 1.945.437 1.008.54 1.664 1.61 1.664 2.883Zm-1.851 0c0-.703-.422-1.211-.984-1.453-.235-.094-.493-.14-.993-.14h-3.047v3.187h3.04c.515 0 .773-.047 1-.149.57-.234.984-.75.984-1.445Zm9.931-7.875h7.649v1.734h-5.774v2.461h4.477v1.719h-4.477v3.555h5.774V68h-7.649V56.797Zm15.244-.008h9.469v1.75h-3.805V68h-1.875v-9.46h-3.789v-1.75Z"/><mask id="fa" maskUnits="userSpaceOnUse" x="0" y="0" width="137" height="48"><path d="M137 0H0v48h137V0Z"/></mask><g mask="url(#fa)"><path d="M.153 27.914c.245-.058 24.662-5.88 43.047-14.033 2.045-.907 3.7-1.445 5.096-1.698-1.563 1.574-10.756 5.5-3.414 6.195 6.737.64-4.36 8.633-9.448 11.539-13.38 4.243-22.065 5.909-22.221 5.938l.184.982c.045-.009.823-.158 2.23-.47 7.377-1.632 32.138-7.745 60.545-21.715 3.984-1.96 7.235-3.046 9.972-3.45-.803 4.117-10.09 13.218 4.743 15.516 13.529 2.096-13.602 7.418-23.714 10.128-1.459.39-2.563.727-3.14.992-4.465 2.047 47.434.206 70.643.112.757.027 1.53.042 2.324.042v-.999c-20.73 0-28.072-9.48-33.972-17.096-6.13-7.916-10.973-14.17-27.296-6.142a282.248 282.248 0 0 1-11.5 5.335c-3.423-1.218-5.496-2.97-7.312-4.507-3.382-2.864-5.825-4.933-13.99-1.31C24.603 21.4.244 27.209 0 27.266l.153.648Z"/></g></svg><svg viewBox="0 0 50 50" id="programs-1" xmlns="http://www.w3.org/2000/svg"><rect width="50" height="50" rx="4"/><g clip-path="url(#ga)"><path d="M19.035 31.928h3.643v.302h-3.643v-.302Zm16.004 0H43v.302h-7.96v-.302Zm-.194-11.05c.331.456.599.857.812 1.213.069-1.146.267-1.845.464-2.247V23c.102.26.175.532.18.818 0 .204-.04.39-.12.558a1.058 1.058 0 0 1-.06.11v5.902a.87.87 0 0 0 1.738 0v-6.347h.326v6.346a.87.87 0 1 0 1.739 0v-7.1c-1.983-2.13-3.34-4.48-3.667-5.072a1.555 1.555 0 0 0-.196.082c-.378.188-.786.598-1.071 1.325-.12.303-.224.663-.304 1.094a.8.8 0 0 1 .159.162Zm-.336 2.459.002.06.032.006a5.215 5.215 0 0 0-.034-.066Z"/><path d="M37.438 19.693a26.528 26.528 0 0 0 2.486 3.238v-3.085c.041.085.083.183.125.297.198.55.365 1.451.364 2.857 0 .388-.012.814-.04 1.282a.563.563 0 1 0 1.123.066c.027-.449.041-.898.042-1.348-.003-2.121-.342-3.296-.804-4.002a1.99 1.99 0 0 0-.75-.7 1.335 1.335 0 0 0-.594-.15h-.002l-.008-.001h-2.716l-.01.001c-.051 0-.102.004-.152.011.156.279.476.832.936 1.534Zm.584-1.947a1.582 1.582 0 1 0 0-3.164 1.582 1.582 0 0 0 0 3.164Zm-26.257 8.131v14.145a1.495 1.495 0 1 0 2.992 0v-10.92h.56v10.92a1.495 1.495 0 1 0 2.992 0v-18.14c.08.167.152.338.215.513.34.945.628 2.495.627 4.916 0 .667-.022 1.4-.069 2.204a.968.968 0 0 0 1.933.113 39.77 39.77 0 0 0 .071-2.317c-.005-3.651-.588-5.672-1.383-6.887-.397-.603-.862-.99-1.292-1.204a2.305 2.305 0 0 0-1-.258l-.037-.002h-.568l-.297 2.324-1.18-1.42.816-.904h-2.216l.816.903-1.18 1.421-.297-2.324H12.7a.922.922 0 0 0-.107.006c-.428.006-.868.03-1.295.042-.12.004-.24.007-.358.006-.691.008-1.29-.09-1.568-.263a.718.718 0 0 1-.296-.298c-.072-.135-.14-.355-.14-.729-.001-.403.085-.975.313-1.722a.968.968 0 0 0-.644-1.207.073.073 0 0 0-.02-.005v-2.522c.265-.424.94-1.182 2.117-.48 3.192 1.903 3.387-2.54 3.387-2.54s-1.673.928-2.883-.16c-1.024-.922-2.264-.4-2.62-.217v-.389h-.444v6.288a.968.968 0 0 0-.745.668c-.265.875-.396 1.62-.397 2.286 0 .61.116 1.164.366 1.637.376.718 1.042 1.149 1.676 1.346.642.205 1.288.24 1.898.243l.1-.001c.25-.003.494-.01.725-.02v4.948Z"/><path d="M15.48 18.234a2.722 2.722 0 1 0-.887-5.371 2.722 2.722 0 0 0 .888 5.37Zm13.743 5.883c-.122-1.217-.395-1.992-.735-2.512-.23-.35-.5-.575-.75-.7a1.332 1.332 0 0 0-.594-.15h-.494a10.662 10.662 0 0 1 .24 3.327v1.291h-2.227v-1.29a10.658 10.658 0 0 1 .24-3.33h-.485l-.01.002c-.124 0-.344.024-.593.15-.378.188-.786.598-1.07 1.325-.29.73-.483 1.785-.485 3.378 0 .412.014.86.043 1.347a.563.563 0 0 0 .56.53l.034-.002a.562.562 0 0 0 .529-.594c-.026-.427-.04-.854-.04-1.281-.003-1.703.245-2.658.49-3.157v10.545a.87.87 0 1 0 1.738 0v-6.347h.326v6.347a.87.87 0 0 0 1.738 0V22.453c.042.085.084.183.125.298.199.55.365 1.45.365 2.857 0 .387-.013.814-.04 1.281a.56.56 0 0 0 .247.497c.056-1.048.213-1.89.476-2.556.112-.286.24-.52.372-.713Z"/><path d="M24.834 23.188c0 .322.015.588.031.78h1.823a10.449 10.449 0 0 0-.255-3.213H25.12c-.225.93-.286 1.792-.286 2.433Zm.942-2.834a1.582 1.582 0 1 0 0-3.164 1.582 1.582 0 0 0 0 3.164Zm-.001 4.75a.395.395 0 1 0 0-.791.395.395 0 0 0 0 .79Zm5.513-4.479h2.162a1.58 1.58 0 0 0-2.924.835 1.582 1.582 0 0 0 2.956.782h-2.194v-1.617Z"/><path d="M32.636 21.867a.434.434 0 1 0 0-.867.434.434 0 0 0 0 .867Z"/><path d="M36.059 23.823c-.005-.361-.13-.706-.354-1.15-.226-.442-.566-.978-1.056-1.652a.563.563 0 0 0-.91.661c.469.644.78 1.14.965 1.503.119.227.18.403.21.514a3.841 3.841 0 0 1-.665-.113c-.134-.03-.268-.063-.398-.09a2.326 2.326 0 0 0-.33-.048c-.017-.002-.036-.005-.054-.005H30.74c-.125 0-.343.025-.593.15-.378.188-.786.599-1.071 1.325-.289.73-.483 1.785-.483 3.378 0 .412.013.86.041 1.347a.562.562 0 1 0 1.123-.065 22.835 22.835 0 0 1-.04-1.282c-.002-1.703.246-2.657.49-3.157v10.545a.87.87 0 1 0 1.739 0v-6.346h.325v6.346a.87.87 0 0 0 1.74 0V24.686l.204.045c.229.048.472.092.73.093.216-.003.461-.025.713-.193a.904.904 0 0 0 .305-.357 1.05 1.05 0 0 0 .096-.451Z"/></g><defs><clipPath id="ga"><path transform="translate(7 7)" d="M0 0h36v36H0z"/></clipPath></defs></svg><svg viewBox="0 0 50 50" id="programs-2" xmlns="http://www.w3.org/2000/svg"><rect width="50" height="50" rx="4"/><path d="M38.404 14.061a3.058 3.058 0 0 0-.35-.889S34.15 7 23.999 7C13.851 7 9.945 13.172 9.945 13.172a3.038 3.038 0 0 0-.35.89s-.756 4.002.494 9.74c1.15 5.274 4.33 12.834 12.965 18.898a1.642 1.642 0 0 0 1.892 0c8.632-6.064 11.813-13.624 12.963-18.899 1.253-5.737.495-9.74.495-9.74Zm-3.822 9.015c-.032.151-.072.309-.11.464H24v15.634c-6.736-5.113-9.42-11.195-10.474-15.634H24V10.405c7.228 0 10.447 3.64 11.085 4.469.105.764.434 3.916-.502 8.202Z"/></svg><svg viewBox="0 0 50 50" id="programs-3" xmlns="http://www.w3.org/2000/svg"><rect width="50" height="50" rx="4"/><path d="m33.3 16.446-7.245-4.61V8.054a1.055 1.055 0 0 0-2.11 0v3.78L16.7 16.446a1.055 1.055 0 0 0-.488.89v24.61c0 .582.472 1.054 1.055 1.054h15.468c.583 0 1.055-.472 1.055-1.055v-24.61c0-.36-.184-.695-.488-.889Zm-8.3 7.85a3.52 3.52 0 0 1-3.516-3.515 3.522 3.522 0 0 1 2.461-3.354v.893a1.055 1.055 0 1 0 2.11 0v-.893a3.522 3.522 0 0 1 2.46 3.354A3.52 3.52 0 0 1 25 24.297Z"/></svg></svg>